Coordinates
version=1
nRows=40
nColumns=38
inDegrees=no

Units are S.I. units (second, meters, Newtons, ...)
If the header above contains a line with 'inDegrees', this indicates whether rotational values are in degrees (yes) or radians (no).

endheader
time	pelvis_tilt	pelvis_list	pelvis_rotation	pelvis_tx	pelvis_ty	pelvis_tz	hip_flexion_r	hip_adduction_r	hip_rotation_r	knee_angle_r	ankle_angle_r	subtalar_angle_r	mtp_angle_r	hip_flexion_l	hip_adduction_l	hip_rotation_l	knee_angle_l	ankle_angle_l	subtalar_angle_l	mtp_angle_l	lumbar_extension	lumbar_bending	lumbar_rotation	arm_flex_r	arm_add_r	arm_rot_r	elbow_flex_r	pro_sup_r	wrist_flex_r	wrist_dev_r	arm_flex_l	arm_add_l	arm_rot_l	elbow_flex_l	pro_sup_l	wrist_flex_l	wrist_dev_l
1.38	-0.345681	1.49008	-1.25201	0.705756	-0.109001	0.963384	-0.163303	0.0682946	-0.132195	0.155279	0.164056	0	0	0.442856	-0.0770101	-0.283782	0.601823	0.143969	0	0	-0.158325	0.0642081	-0.0185269	0.011705	-0.112793	-0.235432	0.257368	1.4249	0	0	-0.134955	-0.484566	0.739929	0.692223	0.634065	0	0
1.39	-0.362047	1.49138	-1.23456	0.705286	-0.119995	0.961673	-0.178678	0.0696861	-0.132685	0.147342	0.170732	0	0	0.436191	-0.071912	-0.311724	0.535311	0.151668	0	0	-0.156694	0.0626406	-0.0217985	0.0135299	-0.109583	-0.236995	0.253611	1.42593	0	0	-0.136171	-0.485601	0.741448	0.69065	0.633545	0	0
1.4	-0.371849	1.49316	-1.22322	0.705066	-0.131102	0.959836	-0.192897	0.0694656	-0.135376	0.142489	0.179477	0	0	0.428832	-0.0638143	-0.339267	0.468035	0.158218	0	0	-0.154668	0.0606444	-0.0250478	0.0148356	-0.106618	-0.237933	0.250042	1.42588	0	0	-0.136997	-0.485958	0.742761	0.688236	0.633435	0	0
1.41	-0.371645	1.49601	-1.22103	0.70515	-0.142333	0.957849	-0.205029	0.0674159	-0.139701	0.141225	0.190362	0	0	0.421307	-0.0515933	-0.362891	0.400048	0.164042	0	0	-0.151642	0.0577964	-0.0287259	0.0158728	-0.103814	-0.238643	0.245535	1.42492	0	0	-0.137688	-0.485692	0.743491	0.685204	0.633688	0	0
1.42	-0.348895	1.49993	-1.2409	0.705485	-0.153653	0.955781	-0.215404	0.063185	-0.144999	0.141569	0.201355	0	0	0.411965	-0.0336708	-0.377537	0.328218	0.167822	0	0	-0.147947	0.0531017	-0.0331316	0.0166981	-0.100789	-0.240199	0.241029	1.42272	0	0	-0.138886	-0.485041	0.742342	0.681918	0.634717	0	0
1.43	-0.30049	1.50433	-1.28649	0.706058	-0.16516	0.953703	-0.224141	0.0562575	-0.152889	0.146302	0.214908	0	0	0.398717	-0.0100642	-0.376849	0.249671	0.167451	0	0	-0.144018	0.046883	-0.0375688	0.0170919	-0.0978522	-0.242002	0.23673	1.41963	0	0	-0.140744	-0.483483	0.739076	0.677557	0.638516	0	0
1.44	-0.234349	1.5085	-1.35095	0.706686	-0.17697	0.95163	-0.231828	0.0475135	-0.162322	0.15549	0.230626	0	0	0.379748	0.0168946	-0.355625	0.162556	0.15923	0	0	-0.139921	0.0400601	-0.0403851	0.0160155	-0.0954514	-0.242027	0.233761	1.41612	0	0	-0.142649	-0.481399	0.736557	0.672038	0.64253	0	0
1.45	-0.169393	1.51113	-1.41642	0.707113	-0.189132	0.94957	-0.240644	0.0394146	-0.169827	0.165015	0.244671	0	0	0.353798	0.0423674	-0.312733	0.0689459	0.140312	0	0	-0.136496	0.0338859	-0.040588	0.0140312	-0.0935927	-0.239934	0.23124	1.41191	0	0	-0.14497	-0.479528	0.73485	0.667541	0.643587	0	0
1.46	-0.162314	1.51494	-1.4256	0.707148	-0.201495	0.947228	-0.246645	0.0355021	-0.173922	0.175552	0.256169	0	0	0.33394	0.057818	-0.267395	0	0.124084	0	0	-0.130547	0.0309921	-0.0383706	0.0110146	-0.0919436	-0.23912	0.229155	1.40977	0	0	-0.147808	-0.478025	0.735413	0.663622	0.643527	0	0
1.47	-0.149047	1.51551	-1.43652	0.706809	-0.212574	0.944934	-0.252744	0.0404195	-0.164578	0.189379	0.257855	0	0	0.345699	0.0639924	-0.247895	0	0.130818	0	0	-0.130469	0.0275237	-0.0375281	0.00897576	-0.0891626	-0.239667	0.22772	1.40719	0	0	-0.147714	-0.4785	0.737077	0.660572	0.644101	0	0
1.48	-0.174379	1.51838	-1.4126	0.706612	-0.22473	0.942746	-0.257031	0.0394091	-0.168368	0.202962	0.265525	0	0	0.353378	0.0663643	-0.235556	0	0.139739	0	0	-0.126564	0.0262034	-0.0342812	0.00667809	-0.0870126	-0.241199	0.225641	1.40318	0	0	-0.149776	-0.47778	0.735239	0.658122	0.644247	0	0
1.49	-0.180454	1.52178	-1.40996	0.706317	-0.237218	0.940672	-0.25843	0.0358092	-0.173835	0.222104	0.274403	0	0	0.358634	0.0693096	-0.227777	0	0.146226	0	0	-0.121815	0.023748	-0.0294873	0.00427298	-0.0850005	-0.243125	0.223013	1.39871	0	0	-0.152762	-0.477304	0.731783	0.656662	0.643558	0	0
1.5	-0.138371	1.52537	-1.45758	0.70595	-0.250386	0.938666	-0.256151	0.0281045	-0.180277	0.249563	0.285285	0	0	0.361233	0.0737409	-0.222334	0	0.146963	0	0	-0.116543	0.018916	-0.0226378	0.00110203	-0.0830084	-0.245648	0.220787	1.39451	0	0	-0.156354	-0.477341	0.72858	0.656023	0.642167	0	0
1.51	-0.0889785	1.5275	-1.51598	0.705654	-0.2643	0.937143	-0.25768	0.0114997	-0.19562	0.275137	0.301673	0	0	0.359834	0.0743216	-0.222702	0.00320507	0.14664	0	0	-0.111817	0.0141234	-0.0129231	-0.00275216	-0.0816812	-0.247761	0.218821	1.39074	0	0	-0.160983	-0.477334	0.72602	0.656028	0.640563	0	0
1.52	0.0247943	1.52554	-1.63694	0.705047	-0.27757	0.935775	-0.259595	-0.000205189	-0.196414	0.305331	0.308408	0	0	0.371789	0.0753823	-0.229485	0.0511862	0.153877	0	0	-0.112118	0.00579871	-0.00365264	-0.00627732	-0.0797374	-0.249581	0.217467	1.38721	0	0	-0.164871	-0.479112	0.722895	0.657231	0.638756	0	0
1.53	0.0985316	1.52421	-1.71854	0.704281	-0.291123	0.934368	-0.259246	-0.0103266	-0.193357	0.337539	0.311136	0	0	0.388704	0.0720938	-0.244096	0.114657	0.171585	0	0	-0.11051	-0.00105338	0.00608994	-0.0103998	-0.0782957	-0.251261	0.216109	1.38402	0	0	-0.170781	-0.480899	0.717499	0.659458	0.636712	0	0
1.54	0.140432	1.52374	-1.76977	0.703365	-0.305068	0.93291	-0.255851	-0.019366	-0.186655	0.373701	0.310826	0	0	0.405553	0.065415	-0.258719	0.18212	0.196058	0	0	-0.106802	-0.00632557	0.0166153	-0.01544	-0.0775925	-0.252968	0.214959	1.3814	0	0	-0.1788	-0.48294	0.71231	0.662674	0.633687	0	0
1.55	0.154379	1.52445	-1.79476	0.702396	-0.319437	0.931328	-0.248443	-0.027771	-0.176774	0.415398	0.307611	0	0	0.419288	0.0573868	-0.269618	0.242542	0.222744	0	0	-0.100563	-0.00977707	0.0276256	-0.021142	-0.0778819	-0.254699	0.21346	1.37955	0	0	-0.189742	-0.484566	0.705957	0.666569	0.630217	0	0
1.56	0.164798	1.52666	-1.81714	0.701536	-0.334035	0.929606	-0.235211	-0.0368719	-0.165407	0.464189	0.299783	0	0	0.429565	0.0505376	-0.277866	0.289	0.237857	0	0	-0.0915568	-0.012451	0.0377038	-0.0267562	-0.0791009	-0.25568	0.21127	1.37916	0	0	-0.204012	-0.485419	0.696424	0.671244	0.625985	0	0
1.57	0.21886	1.53057	-1.88233	0.701017	-0.348517	0.92782	-0.213559	-0.0481936	-0.153132	0.522896	0.286073	0	0	0.437802	0.0473244	-0.283451	0.31978	0.226087	0	0	-0.079975	-0.0162086	0.0448494	-0.0317079	-0.0807708	-0.254974	0.20938	1.38111	0	0	-0.220573	-0.48546	0.683594	0.676235	0.619904	0	0
1.58	0.353101	1.53355	-2.02314	0.701157	-0.362474	0.926369	-0.185455	-0.0617379	-0.141227	0.589743	0.262628	0	0	0.444632	0.0494878	-0.283261	0.341196	0.19064	0	0	-0.0695257	-0.0226026	0.0465874	-0.0356836	-0.0820221	-0.253072	0.210561	1.38465	0	0	-0.235665	-0.485213	0.670858	0.680081	0.611503	0	0
1.59	0.568805	1.53341	-2.23938	0.701861	-0.375613	0.925506	-0.151732	-0.0772147	-0.12988	0.663571	0.227363	0	0	0.453981	0.055707	-0.28054	0.367733	0.158146	0	0	-0.0625576	-0.032596	0.0427405	-0.038026	-0.0820369	-0.251697	0.214133	1.38774	0	0	-0.245624	-0.487306	0.666927	0.683201	0.600384	0	0
1.6	0.792758	1.52913	-2.45945	0.702786	-0.388105	0.925117	-0.114426	-0.0932525	-0.117746	0.74152	0.181496	0	0	0.466155	0.0644422	-0.276167	0.40433	0.145017	0	0	-0.0592309	-0.0451978	0.0358422	-0.0394075	-0.0811592	-0.251527	0.219491	1.3934	0	0	-0.250204	-0.492902	0.673291	0.687533	0.583096	0	0
1.61	0.894379	1.5215	-2.55473	0.703641	-0.400417	0.925206	-0.0790781	-0.106289	-0.103797	0.819521	0.126697	0	0	0.474377	0.0731348	-0.270242	0.444443	0.142747	0	0	-0.0616589	-0.0569574	0.027534	-0.0391329	-0.0802667	-0.251416	0.222451	1.39886	0	0	-0.252029	-0.500847	0.683376	0.694514	0.564735	0	0
1.62	0.897594	1.51303	-2.55195	0.704284	-0.412729	0.925587	-0.0461585	-0.115294	-0.087929	0.895257	0.0654188	0	0	0.475781	0.0794605	-0.266357	0.4811	0.139797	0	0	-0.0685475	-0.0661361	0.0200047	-0.0379514	-0.0802365	-0.249912	0.223043	1.40127	0	0	-0.253417	-0.508742	0.690589	0.702612	0.552953	0	0
1.63	0.869327	1.50439	-2.5187	0.704815	-0.425003	0.926072	-0.0142482	-0.121495	-0.0709223	0.966875	0.000928941	0	0	0.470587	0.0842824	-0.266303	0.510051	0.135126	0	0	-0.0768956	-0.073602	0.0141856	-0.0367556	-0.0811212	-0.247283	0.221779	1.39979	0	0	-0.25447	-0.516074	0.695421	0.71077	0.54669	0	0
1.64	0.867661	1.49698	-2.51318	0.705408	-0.436968	0.926415	0.0201529	-0.12625	-0.0478591	1.03408	-0.061977	0	0	0.462138	0.0890126	-0.270825	0.528897	0.131632	0	0	-0.0830299	-0.0803418	0.0098497	-0.0356526	-0.0829951	-0.242872	0.219769	1.39569	0	0	-0.25418	-0.523086	0.701944	0.71788	0.545052	0	0
1.65	0.903437	1.48954	-2.545	0.706255	-0.448643	0.926647	0.0581249	-0.134178	-0.0336409	1.09783	-0.129447	0	0	0.450467	0.0969905	-0.277731	0.536102	0.128929	0	0	-0.0863206	-0.0886	0.0056648	-0.0355817	-0.0852687	-0.237418	0.219734	1.39098	0	0	-0.252637	-0.529903	0.709871	0.723691	0.545335	0	0
1.66	0.957215	1.48301	-2.59433	0.70729	-0.459995	0.926851	0.097722	-0.142334	-0.0210294	1.15599	-0.19167	0	0	0.438409	0.106474	-0.284915	0.536869	0.125993	0	0	-0.0870933	-0.0970243	0.00106545	-0.0364839	-0.0874231	-0.234498	0.222174	1.3879	0	0	-0.250603	-0.53523	0.715222	0.727035	0.547232	0	0
1.67	1.03012	1.4763	-2.66374	0.708327	-0.471072	0.927109	0.139688	-0.151081	-0.00796655	1.21042	-0.234183	0	0	0.427205	0.118241	-0.290762	0.532991	0.120899	0	0	-0.0849923	-0.106921	-0.00262042	-0.03921	-0.089304	-0.229555	0.228593	1.38114	0	0	-0.24862	-0.540374	0.719937	0.729978	0.552421	0	0
1.68	1.09117	1.47046	-2.72113	0.70937	-0.481885	0.927614	0.1819	-0.157584	0.00521685	1.26295	-0.235217	0	0	0.416836	0.130029	-0.291514	0.529241	0.116039	0	0	-0.0829855	-0.115301	-0.00752411	-0.0415143	-0.0911604	-0.22527	0.23641	1.37534	0	0	-0.24781	-0.542833	0.717211	0.730562	0.558625	0	0
1.69	1.13067	1.46499	-2.75674	0.710377	-0.492548	0.92855	0.221874	-0.162079	0.0177189	1.31016	-0.205595	0	0	0.40526	0.142004	-0.286376	0.525813	0.114084	0	0	-0.0827642	-0.12211	-0.0135697	-0.0427986	-0.0931541	-0.22074	0.244035	1.37023	0	0	-0.247609	-0.543713	0.710523	0.730089	0.564682	0	0
1.7	1.14123	1.4597	-2.76298	0.71138	-0.5031	0.930071	0.257091	-0.164957	0.0281962	1.34709	-0.167526	0	0	0.389668	0.15396	-0.276718	0.520345	0.115281	0	0	-0.0857384	-0.127049	-0.0203288	-0.0430716	-0.095146	-0.217655	0.250743	1.36551	0	0	-0.246754	-0.543568	0.702834	0.729254	0.568302	0	0
1.71	1.12413	1.45517	-2.74142	0.712356	-0.513498	0.932225	0.286813	-0.1652	0.0371273	1.37184	-0.136794	0	0	0.369159	0.164309	-0.265758	0.511473	0.118807	0	0	-0.0921512	-0.129489	-0.027504	-0.0417649	-0.0971932	-0.215242	0.255062	1.3619	0	0	-0.24489	-0.542248	0.694831	0.727814	0.569567	0	0
1.72	1.08877	1.45224	-2.70201	0.713321	-0.523653	0.934919	0.312161	-0.161434	0.0462963	1.38433	-0.117215	0	0	0.344554	0.171924	-0.255195	0.49829	0.12214	0	0	-0.101013	-0.128716	-0.0339673	-0.0390095	-0.0997018	-0.211861	0.256909	1.35957	0	0	-0.241137	-0.539593	0.687961	0.725294	0.568996	0	0
1.73	1.04677	1.45039	-2.65582	0.714359	-0.533648	0.937881	0.335198	-0.156363	0.0508727	1.38761	-0.106723	0	0	0.317375	0.177706	-0.245721	0.481228	0.124004	0	0	-0.110658	-0.125673	-0.039616	-0.0360151	-0.102272	-0.21033	0.258281	1.35693	0	0	-0.235379	-0.536937	0.685005	0.72312	0.565566	0	0
1.74	1.00505	1.44971	-2.60948	0.715471	-0.543502	0.940857	0.356283	-0.150004	0.0566475	1.38257	-0.0968088	0	0	0.289519	0.181784	-0.23749	0.461643	0.125587	0	0	-0.119635	-0.120833	-0.0449573	-0.0324569	-0.104796	-0.209748	0.257727	1.35399	0	0	-0.228448	-0.535157	0.686236	0.722581	0.558889	0	0
1.75	0.98871	1.44167	-2.58292	0.717385	-0.554218	0.943461	0.37754	-0.186816	0.0207013	1.37554	-0.0885708	0	0	0.255967	0.197001	-0.224378	0.43488	0.125634	0	0	-0.128387	-0.123661	-0.0568236	-0.0316058	-0.106477	-0.207904	0.257717	1.35165	0	0	-0.226386	-0.537707	0.687704	0.730394	0.550762	0	0
1.76	0.95513	1.44264	-2.54302	0.718722	-0.563913	0.946083	0.395933	-0.180933	0.0232951	1.35711	-0.0752604	0	0	0.228972	0.199245	-0.215126	0.413736	0.127568	0	0	-0.13592	-0.116812	-0.0637046	-0.0290978	-0.108599	-0.20971	0.258096	1.35017	0	0	-0.220275	-0.53705	0.688854	0.73302	0.546549	0	0
1.77	0.92096	1.44449	-2.50172	0.720112	-0.57355	0.948467	0.412568	-0.174933	0.024215	1.33251	-0.0611002	0	0	0.203194	0.200142	-0.205235	0.393851	0.1296	0	0	-0.142729	-0.108961	-0.0713681	-0.0272169	-0.109981	-0.217013	0.259136	1.35199	0	0	-0.214611	-0.536653	0.688814	0.735877	0.548078	0	0
